<svg width="453" height="169" viewBox="0 0 453 169" fill="none" xmlns="http://www.w3.org/2000/svg">
<path d="M55.0781 88.2891C55.0781 94.002 54.1504 98.9824 52.2949 103.23C50.4883 107.479 47.9492 111.019 44.6777 113.851C41.4062 116.683 37.5 118.782 32.959 120.149C28.4668 121.565 23.5352 122.273 18.1641 122.273H15.6738C15.1855 122.273 14.4531 122.249 13.4766 122.2C12.5 122.2 11.499 122.103 10.4736 121.907C9.49707 121.761 8.61816 121.492 7.83691 121.102C7.10449 120.711 6.73828 120.174 6.73828 119.49C6.73828 118.709 6.90918 117.928 7.25098 117.146C7.6416 116.414 8.12988 115.755 8.71582 115.169C9.30176 114.534 9.96094 114.021 10.6934 113.631C11.4258 113.191 12.1582 112.898 12.8906 112.752C12.5 112.264 12.207 111.604 12.0117 110.774C11.8164 109.944 11.6455 109.065 11.499 108.138C11.3525 107.21 11.2305 106.307 11.1328 105.428C11.084 104.5 11.0352 103.719 10.9863 103.084C10.1074 95.5156 9.35059 87.9717 8.71582 80.4521C8.08105 72.9326 7.76367 65.3398 7.76367 57.6738C7.76367 52.791 7.83691 47.957 7.9834 43.1719C8.12988 38.3867 8.25195 33.5527 8.34961 28.6699C8.44727 26.668 8.47168 24.6904 8.42285 22.7373C8.42285 20.7842 8.49609 18.8066 8.64258 16.8047C8.34961 16.9023 8.03223 16.9512 7.69043 16.9512C7.34863 16.9512 6.98242 16.9512 6.5918 16.9512C5.85938 16.9512 5.12695 16.8291 4.39453 16.585C3.71094 16.292 3.36914 15.6328 3.36914 14.6074C3.36914 13.3379 3.6377 12.3125 4.1748 11.5312C4.71191 10.75 5.39551 10.1641 6.22559 9.77344C7.05566 9.33398 7.9834 9.06543 9.00879 8.96777C10.083 8.82129 11.1328 8.74805 12.1582 8.74805C16.8457 8.74805 21.3867 9.33398 25.7812 10.5059C30.1758 11.6777 34.0576 13.4844 37.4268 15.9258C40.7959 18.3672 43.5059 21.4922 45.5566 25.3008C47.6074 29.0605 48.6328 33.5527 48.6328 38.7773C48.6328 43.0742 47.8516 47.1758 46.2891 51.082C44.7266 54.9883 42.4316 58.4551 39.4043 61.4824C42.1387 62.6543 44.4824 64.1924 46.4355 66.0967C48.4375 67.9521 50.0732 70.0518 51.3428 72.3955C52.6123 74.7393 53.54 77.2783 54.126 80.0127C54.7607 82.6982 55.0781 85.457 55.0781 88.2891ZM37.5 37.752C37.5 34.8223 37.0361 32.2344 36.1084 29.9883C35.1807 27.6934 33.8867 25.7158 32.2266 24.0557C30.5664 22.3467 28.5889 20.9795 26.2939 19.9541C23.999 18.8799 21.4844 18.0742 18.75 17.5371C18.8477 17.7812 18.8965 18.001 18.8965 18.1963C18.8965 18.3916 18.8965 18.5625 18.8965 18.709C18.8965 23.3477 18.8477 27.9375 18.75 32.4785C18.6523 36.9707 18.6035 41.5117 18.6035 46.1016V53.7188C18.6035 54.6953 18.6279 55.6963 18.6768 56.7217C18.7256 57.6982 18.75 58.6992 18.75 59.7246C20.0195 59.1875 21.2891 58.9189 22.5586 58.9189C23.877 58.8701 25.1953 58.8457 26.5137 58.8457C30.1758 56.5508 32.9102 53.5479 34.7168 49.8369C36.5723 46.0771 37.5 42.0488 37.5 37.752ZM44.0918 88.1426C44.0918 85.7988 43.8721 83.5283 43.4326 81.3311C43.042 79.1338 42.334 77.1318 41.3086 75.3252C40.2832 73.4697 38.9404 71.8828 37.2803 70.5645C35.6201 69.2461 33.5449 68.2695 31.0547 67.6348C27.3438 69.7344 23.3887 71.1504 19.1895 71.8828C19.5801 77.4004 20.0439 82.918 20.5811 88.4355C21.167 93.9043 21.9727 99.373 22.998 104.842C23.2422 106.111 23.5107 107.381 23.8037 108.65C24.1455 109.871 24.3652 111.141 24.4629 112.459C27.7344 112.02 30.5908 111.116 33.0322 109.749C35.5225 108.333 37.5732 106.575 39.1846 104.476C40.8447 102.327 42.0654 99.8613 42.8467 97.0781C43.6768 94.2949 44.0918 91.3164 44.0918 88.1426ZM91.1133 68.6602C91.1133 69.1484 91.0645 69.6611 90.9668 70.1982C90.8691 70.7354 90.7715 71.2236 90.6738 71.6631C90.5762 72.2002 90.4785 72.7129 90.3809 73.2012C90.2832 73.6406 90.2344 74.0801 90.2344 74.5195C90.2344 79.0605 90.3076 83.626 90.4541 88.2158C90.6494 92.7568 91.1377 97.3223 91.9189 101.912C92.1631 103.67 92.4561 105.379 92.7979 107.039C93.1396 108.699 93.5303 110.384 93.9697 112.093L94.1162 112.532V112.386C94.2627 112.728 94.3848 113.094 94.4824 113.484C94.6289 113.826 94.7021 114.192 94.7021 114.583C94.7021 115.12 94.5557 115.56 94.2627 115.901C94.0186 116.243 93.7012 116.512 93.3105 116.707C92.9199 116.902 92.4805 117.024 91.9922 117.073C91.5527 117.122 91.1377 117.146 90.7471 117.146C89.1357 117.146 87.8418 116.976 86.8652 116.634C85.9375 116.243 85.1807 115.73 84.5947 115.096C84.0088 114.412 83.5693 113.606 83.2764 112.679C83.0322 111.751 82.8125 110.726 82.6172 109.603L82.3975 108.284C82.2021 107.601 82.0801 106.868 82.0312 106.087C81.9824 105.696 81.9336 105.525 81.8848 105.574C81.8848 105.574 81.8604 105.379 81.8115 104.988C81.1279 106.209 80.3223 107.527 79.3945 108.943C78.5156 110.311 77.4902 111.604 76.3184 112.825C75.1953 113.997 73.9746 114.998 72.6562 115.828C71.3379 116.609 69.9219 117 68.4082 117C66.3086 117 64.6729 116.365 63.501 115.096C62.3779 113.826 61.5479 112.288 61.0107 110.481C60.4736 108.626 60.1562 106.722 60.0586 104.769C59.9609 102.767 59.9121 101.033 59.9121 99.5684C59.9121 94.002 60.083 88.4844 60.4248 83.0156C60.8154 77.5469 61.2305 72.0537 61.6699 66.5361C61.6699 66.3896 61.6699 66.1943 61.6699 65.9502C61.7188 65.7061 61.7432 65.5107 61.7432 65.3643C61.792 64.6807 61.8408 64.0459 61.8896 63.46C61.9385 62.874 62.0605 62.3125 62.2559 61.7754V61.8486C62.4512 61.0674 62.7197 60.5059 63.0615 60.1641C63.4521 59.8223 64.0381 59.6514 64.8193 59.6514C65.5518 59.6514 66.2842 59.7979 67.0166 60.0908C67.749 60.335 68.4082 60.7012 68.9941 61.1895C69.5801 61.6289 70.0439 62.166 70.3857 62.8008C70.7764 63.4355 70.9717 64.1436 70.9717 64.9248C70.9717 65.3154 70.9717 65.7793 70.9717 66.3164C70.9717 66.8535 70.9473 67.3174 70.8984 67.708C70.8984 68.0498 70.874 68.4893 70.8252 69.0264C70.8252 69.5146 70.8252 69.9297 70.8252 70.2715C70.4346 74.959 70.1416 79.6221 69.9463 84.2607C69.751 88.8506 69.6533 93.5137 69.6533 98.25C69.6533 99.5684 69.6533 100.887 69.6533 102.205C69.7021 103.523 69.8486 104.842 70.0928 106.16C71.7041 104.109 73.0957 101.497 74.2676 98.3232C75.4395 95.1006 76.416 91.707 77.1973 88.1426C78.0273 84.5293 78.6865 80.9648 79.1748 77.4492C79.7119 73.8848 80.1025 70.7354 80.3467 68.001C80.3467 67.8545 80.3467 67.6836 80.3467 67.4883C80.3955 67.293 80.4199 67.1221 80.4199 66.9756C80.4688 66.4385 80.5176 65.9258 80.5664 65.4375C80.6152 64.9492 80.7861 64.4854 81.0791 64.0459C81.0791 63.6064 81.1035 63.1426 81.1523 62.6543C81.2012 62.166 81.3232 61.7266 81.5186 61.3359C81.7139 60.8965 81.9824 60.5547 82.3242 60.3105C82.7148 60.0664 83.252 59.9443 83.9355 59.9443C85.8887 59.9443 87.4268 60.5547 88.5498 61.7754C89.6729 62.9473 90.2832 64.4609 90.3809 66.3164C90.625 66.707 90.7959 67.0977 90.8936 67.4883C91.04 67.8301 91.1133 68.2207 91.1133 68.6602ZM127.881 103.597C127.881 105.062 127.466 106.575 126.636 108.138C125.854 109.7 124.829 111.141 123.56 112.459C122.29 113.729 120.825 114.778 119.165 115.608C117.554 116.438 115.942 116.854 114.331 116.854C112.036 116.854 110.059 116.414 108.398 115.535C106.738 114.607 105.298 113.387 104.077 111.873C102.856 110.311 101.855 108.553 101.074 106.6C100.342 104.646 99.7559 102.645 99.3164 100.594C98.877 98.4941 98.5596 96.4189 98.3643 94.3682C98.2178 92.2686 98.1445 90.3643 98.1445 88.6553C98.1445 87.1904 98.2178 85.457 98.3643 83.4551C98.5596 81.4531 98.8525 79.3779 99.2432 77.2295C99.6826 75.0811 100.269 72.957 101.001 70.8574C101.733 68.7578 102.637 66.8779 103.711 65.2178C104.834 63.5576 106.152 62.2148 107.666 61.1895C109.229 60.1641 111.011 59.6514 113.013 59.6514C114.575 59.6514 115.967 59.9688 117.188 60.6035C118.457 61.2383 119.507 62.0928 120.337 63.167C121.216 64.1924 121.875 65.3887 122.314 66.7559C122.803 68.123 123.047 69.5391 123.047 71.0039C123.047 72.9082 122.607 74.9834 121.729 77.2295C120.85 79.4756 119.702 81.6484 118.286 83.748C116.919 85.8477 115.356 87.752 113.599 89.4609C111.89 91.1211 110.181 92.3906 108.472 93.2695C108.569 94.1484 108.765 95.4424 109.058 97.1514C109.351 98.8115 109.741 100.472 110.229 102.132C110.767 103.792 111.377 105.232 112.061 106.453C112.793 107.674 113.647 108.284 114.624 108.284C115.112 108.284 115.527 108.138 115.869 107.845C116.26 107.552 116.602 107.161 116.895 106.673C117.188 106.185 117.432 105.647 117.627 105.062C117.871 104.476 118.091 103.914 118.286 103.377L118.726 102.352C118.823 102.205 118.872 102.107 118.872 102.059C118.921 102.01 118.97 101.937 119.019 101.839C119.36 101.204 119.678 100.618 119.971 100.081C120.312 99.5439 120.776 99.0801 121.362 98.6895H121.289C121.484 98.4941 121.68 98.3965 121.875 98.3965C122.119 98.3477 122.339 98.3232 122.534 98.3232C123.071 98.3232 123.657 98.4941 124.292 98.8359C124.927 99.1777 125.513 99.6172 126.05 100.154C126.587 100.643 127.026 101.204 127.368 101.839C127.71 102.425 127.881 103.011 127.881 103.597ZM113.379 71.2969C113.379 70.8086 113.354 70.2959 113.306 69.7588C113.257 69.2217 113.135 68.7578 112.939 68.3672C112.256 69.1973 111.646 70.1982 111.108 71.3701C110.62 72.4932 110.205 73.6895 109.863 74.959C109.521 76.1797 109.229 77.4248 108.984 78.6943C108.789 79.9639 108.643 81.1357 108.545 82.21C109.814 80.6963 110.938 78.9873 111.914 77.083C112.891 75.1299 113.379 73.2012 113.379 71.2969ZM143.408 116.634C143.408 117.757 143.066 118.489 142.383 118.831C141.748 119.173 140.967 119.344 140.039 119.344C139.209 119.344 138.379 119.271 137.549 119.124C136.768 119.026 136.011 118.807 135.278 118.465C134.595 118.123 133.984 117.659 133.447 117.073C132.959 116.487 132.617 115.73 132.422 114.803C131.738 111.873 131.348 109.017 131.25 106.233C131.152 103.401 131.104 100.496 131.104 97.5176V88.5088C131.104 84.4072 131.274 80.1592 131.616 75.7646C131.958 71.3213 132.324 67.0488 132.715 62.9473C132.715 62.8008 132.739 62.6299 132.788 62.4346C132.837 62.2393 132.861 62.0928 132.861 61.9951C132.91 61.458 132.983 60.8721 133.081 60.2373C133.179 59.6025 133.325 59.041 133.521 58.5527C133.765 58.0156 134.082 57.5762 134.473 57.2344C134.912 56.8926 135.474 56.7217 136.157 56.7217C136.938 56.7217 137.671 56.8926 138.354 57.2344C139.087 57.5273 139.722 57.9424 140.259 58.4795C140.796 58.9678 141.211 59.5781 141.504 60.3105C141.846 61.043 142.017 61.7998 142.017 62.5811C142.017 63.4111 141.992 64.3389 141.943 65.3643C141.895 66.3408 141.821 67.2686 141.724 68.1475C141.724 68.3916 141.699 68.6602 141.65 68.9531C141.65 69.2461 141.626 69.5146 141.577 69.7588C142.261 68.3916 143.042 66.9756 143.921 65.5107C144.8 63.9971 145.801 62.6299 146.924 61.4092C148.096 60.1396 149.365 59.1143 150.732 58.333C152.148 57.5518 153.711 57.1611 155.42 57.1611C156.836 57.1611 158.008 57.3809 158.936 57.8203C159.863 58.2598 160.596 58.8945 161.133 59.7246C161.719 60.5059 162.109 61.4336 162.305 62.5078C162.549 63.582 162.671 64.7295 162.671 65.9502C162.671 67.6104 162.622 69.2949 162.524 71.0039C162.427 72.6641 162.329 74.3242 162.231 75.9844C162.085 77.6934 161.963 79.3779 161.865 81.0381C161.768 82.6982 161.719 84.3828 161.719 86.0918C161.719 88.1426 161.768 90.2666 161.865 92.4639C161.963 94.6123 162.109 96.6875 162.305 98.6895C162.5 100.643 162.72 102.425 162.964 104.036C163.208 105.599 163.452 106.819 163.696 107.698C163.892 108.431 164.087 109.285 164.282 110.262C164.526 111.189 164.746 112.166 164.941 113.191C165.186 114.168 165.381 115.12 165.527 116.048C165.674 116.976 165.747 117.806 165.747 118.538C165.747 119.612 165.308 120.296 164.429 120.589C163.599 120.882 162.769 121.028 161.938 121.028C161.108 121.028 160.156 120.955 159.082 120.809C158.057 120.711 157.129 120.442 156.299 120.003C155.273 119.271 154.59 118.245 154.248 116.927C153.955 115.608 153.76 114.314 153.662 113.045L153.442 111.067C153.296 109.896 153.101 108.357 152.856 106.453C152.612 104.549 152.368 102.449 152.124 100.154C151.929 97.8594 151.758 95.4912 151.611 93.0498C151.465 90.5596 151.392 88.1426 151.392 85.7988C151.392 83.6992 151.465 81.6729 151.611 79.7197C151.807 77.7666 152.002 75.7891 152.197 73.7871C152.295 72.7617 152.368 71.9316 152.417 71.2969C152.466 70.6621 152.539 69.832 152.637 68.8066C151.66 70.3691 150.684 72.2002 149.707 74.2998C148.73 76.3994 147.803 78.5967 146.924 80.8916C146.045 83.1377 145.239 85.335 144.507 87.4834C143.823 89.6318 143.286 91.5117 142.896 93.123L142.456 94.7344C142.212 95.5156 141.992 96.2969 141.797 97.0781C141.65 97.8594 141.577 98.5918 141.577 99.2754C141.577 100.154 141.626 101.18 141.724 102.352C141.821 103.475 141.943 104.549 142.09 105.574C142.236 106.795 142.407 108.04 142.603 109.31C142.603 109.407 142.651 109.725 142.749 110.262C142.847 110.799 142.944 111.434 143.042 112.166C143.14 112.898 143.213 113.68 143.262 114.51C143.359 115.291 143.408 115.999 143.408 116.634ZM203.174 86.9707C203.174 91.2188 202.808 95.4668 202.075 99.7148C201.392 103.914 199.951 107.894 197.754 111.653C197.07 112.776 196.289 113.875 195.41 114.949C194.531 115.975 193.555 116.902 192.48 117.732C191.455 118.611 190.308 119.295 189.038 119.783C187.817 120.32 186.523 120.589 185.156 120.589C183.008 120.589 181.128 120.076 179.517 119.051C177.954 118.074 176.587 116.78 175.415 115.169C174.292 113.509 173.34 111.653 172.559 109.603C171.826 107.503 171.24 105.379 170.801 103.23C170.41 101.033 170.117 98.9092 169.922 96.8584C169.775 94.8076 169.702 93.001 169.702 91.4385C169.702 89.6807 169.775 87.752 169.922 85.6523C170.068 83.5527 170.312 81.4043 170.654 79.207C171.045 77.0098 171.533 74.8369 172.119 72.6885C172.754 70.54 173.56 68.5381 174.536 66.6826C175.513 64.7783 176.685 63.0938 178.052 61.6289C179.419 60.1152 181.006 58.9189 182.812 58.04V58.1133C184.375 57.2832 185.938 56.8682 187.5 56.8682C188.477 56.8682 189.233 57.0879 189.771 57.5273C190.308 57.918 190.552 58.6016 190.503 59.5781C193.188 60.0664 195.361 61.3604 197.021 63.46C198.682 65.5596 199.951 68.001 200.83 70.7842C201.758 73.5674 202.368 76.4238 202.661 79.3535C203.003 82.2832 203.174 84.8223 203.174 86.9707ZM186.621 68.6602C185.791 68.6602 185.01 68.3428 184.277 67.708C183.35 69.124 182.568 70.7598 181.934 72.6152C181.299 74.4219 180.786 76.3018 180.396 78.2549C180.054 80.1592 179.81 82.0879 179.663 84.041C179.517 85.9941 179.443 87.8252 179.443 89.5342C179.443 90.9502 179.517 92.7812 179.663 95.0273C179.81 97.2246 180.078 99.4463 180.469 101.692C180.908 103.938 181.494 106.038 182.227 107.991C183.008 109.944 184.009 111.385 185.229 112.312C186.743 111.434 187.988 110.042 188.965 108.138C189.99 106.185 190.796 104.061 191.382 101.766C191.968 99.4707 192.358 97.1514 192.554 94.8076C192.798 92.4639 192.92 90.4619 192.92 88.8018C192.92 87.5811 192.847 85.9941 192.7 84.041C192.554 82.0879 192.31 80.1104 191.968 78.1084C191.626 76.0576 191.138 74.1533 190.503 72.3955C189.917 70.6377 189.16 69.3193 188.232 68.4404C187.793 68.5869 187.256 68.6602 186.621 68.6602ZM233.276 63.3135C233.276 63.8994 233.057 64.3877 232.617 64.7783C232.227 65.1689 231.738 65.5107 231.152 65.8037C230.566 66.0479 229.956 66.2188 229.321 66.3164C228.735 66.4141 228.247 66.4629 227.856 66.4629C227.271 66.4629 226.709 66.4141 226.172 66.3164C225.635 66.1699 225.098 66.0234 224.561 65.877C224.023 65.7305 223.511 65.6084 223.022 65.5107C222.534 65.3643 222.021 65.291 221.484 65.291C220.752 65.291 220.02 65.4131 219.287 65.6572C218.555 65.9014 217.896 66.2432 217.31 66.6826C216.724 67.1221 216.235 67.6592 215.845 68.2939C215.503 68.9287 215.332 69.6367 215.332 70.418C215.332 71.5898 215.576 72.7617 216.064 73.9336C216.553 75.0566 217.188 76.2041 217.969 77.376C218.799 78.5479 219.727 79.7441 220.752 80.9648C221.826 82.1367 222.949 83.333 224.121 84.5537C225.537 86.1162 226.953 87.7031 228.369 89.3145C229.834 90.9258 231.128 92.6104 232.251 94.3682C233.423 96.126 234.375 97.9814 235.107 99.9346C235.84 101.888 236.206 103.938 236.206 106.087C236.206 107.942 235.889 109.603 235.254 111.067C234.668 112.532 233.813 113.777 232.69 114.803C231.616 115.828 230.298 116.609 228.735 117.146C227.222 117.732 225.562 118.025 223.755 118.025C223.267 118.025 222.51 117.928 221.484 117.732C220.508 117.537 219.385 117.269 218.115 116.927C216.846 116.536 215.527 116.121 214.16 115.682C212.842 115.242 211.621 114.778 210.498 114.29C209.424 113.753 208.521 113.24 207.788 112.752C207.104 112.215 206.763 111.727 206.763 111.287C206.763 110.701 207.031 110.115 207.568 109.529C208.105 108.895 208.74 108.333 209.473 107.845C210.205 107.308 210.962 106.868 211.743 106.526C212.573 106.185 213.257 106.014 213.794 106.014C214.526 106.014 215.283 106.185 216.064 106.526C216.895 106.868 217.725 107.259 218.555 107.698C219.482 108.187 220.41 108.626 221.338 109.017C222.314 109.407 223.315 109.603 224.341 109.603C225.122 109.603 225.562 109.334 225.659 108.797C225.806 108.26 225.879 107.649 225.879 106.966C225.879 105.257 225.586 103.646 225 102.132C224.414 100.569 223.657 99.0557 222.729 97.5908C221.802 96.126 220.728 94.71 219.507 93.3428C218.286 91.9268 217.065 90.5352 215.845 89.168C214.575 87.8008 213.33 86.4336 212.109 85.0664C210.938 83.6992 209.888 82.3076 208.96 80.8916C208.032 79.4268 207.275 77.9375 206.689 76.4238C206.152 74.9102 205.884 73.2988 205.884 71.5898C205.884 69.4902 206.348 67.6104 207.275 65.9502C208.203 64.2412 209.399 62.7764 210.864 61.5557C212.378 60.335 214.062 59.4072 215.918 58.7725C217.822 58.0889 219.727 57.7471 221.631 57.7471C222.266 57.7471 223.242 57.8936 224.561 58.1865C225.879 58.4307 227.173 58.7969 228.442 59.2852C229.712 59.7734 230.835 60.3594 231.812 61.043C232.788 61.7266 233.276 62.4834 233.276 63.3135ZM315.527 76.7168C315.527 77.7422 315.161 78.8164 314.429 79.9395C313.696 81.0625 312.891 81.8926 312.012 82.4297C311.768 82.5762 311.353 82.7227 310.767 82.8691C310.181 83.0156 309.546 83.1621 308.862 83.3086C308.228 83.4062 307.593 83.5283 306.958 83.6748C306.372 83.7725 305.908 83.8457 305.566 83.8945L307.324 94.7344C307.861 98.1035 308.252 101.497 308.496 104.915C308.789 108.284 309.424 111.629 310.4 114.949C310.498 115.242 310.596 115.511 310.693 115.755C310.791 115.999 310.84 116.316 310.84 116.707C310.84 117.342 310.645 117.83 310.254 118.172C309.912 118.514 309.473 118.758 308.936 118.904C308.447 119.1 307.91 119.222 307.324 119.271C306.738 119.319 306.201 119.344 305.713 119.344H304.688C303.174 119.344 302.002 119.222 301.172 118.978C300.391 118.733 299.78 118.318 299.341 117.732C298.901 117.146 298.608 116.414 298.462 115.535C298.315 114.607 298.145 113.484 297.949 112.166C296.777 103.23 295.459 94.2949 293.994 85.3594C290.967 85.75 287.915 86.1162 284.839 86.458C281.812 86.7998 278.76 87.1172 275.684 87.4102L273.34 101.766C273.242 102.645 273.096 103.841 272.9 105.354C272.754 106.868 272.559 108.431 272.314 110.042C272.119 111.604 271.875 113.069 271.582 114.437C271.338 115.804 271.045 116.805 270.703 117.439C270.41 118.025 270.142 118.44 269.897 118.685C269.653 118.929 269.189 119.051 268.506 119.051C267.627 119.051 266.748 118.88 265.869 118.538C265.039 118.245 264.282 117.806 263.599 117.22C262.964 116.683 262.451 116.023 262.061 115.242C261.67 114.461 261.475 113.582 261.475 112.605C261.475 111.629 261.572 110.652 261.768 109.676C262.012 108.699 262.207 107.723 262.354 106.746C262.891 103.523 263.379 100.325 263.818 97.1514C264.258 93.9287 264.746 90.7305 265.283 87.5566C264.941 87.5078 264.551 87.4346 264.111 87.3369C263.672 87.1904 263.232 87.0195 262.793 86.8242C262.402 86.6289 262.061 86.3848 261.768 86.0918C261.475 85.7988 261.328 85.457 261.328 85.0664C261.328 84.5781 261.499 84.1387 261.841 83.748C262.231 83.3086 262.671 82.918 263.159 82.5762C263.696 82.1855 264.233 81.8682 264.771 81.624C265.308 81.3311 265.771 81.1113 266.162 80.9648C267.188 74.1289 268.164 67.3174 269.092 60.5303C270.02 53.7432 270.85 46.8828 271.582 39.9492C271.777 38.0938 271.948 36.2139 272.095 34.3096C272.241 32.4053 272.388 30.501 272.534 28.5967C272.729 26.6924 272.949 24.8125 273.193 22.957C273.486 21.1016 273.877 19.2461 274.365 17.3906C274.805 15.6328 275.537 14.2168 276.562 13.1426C277.588 12.0684 279.102 11.5312 281.104 11.5312C281.689 11.5312 282.251 11.5801 282.788 11.6777C283.374 11.7754 283.887 11.9707 284.326 12.2637C285.596 12.8984 286.914 14.6318 288.281 17.4639C289.648 20.2959 291.016 23.7383 292.383 27.791C293.75 31.7949 295.044 36.1406 296.265 40.8281C297.534 45.5156 298.682 50.0566 299.707 54.4512C300.732 58.8457 301.611 62.8252 302.344 66.3896C303.076 69.9053 303.613 72.5176 303.955 74.2266C304.98 74.0801 306.006 73.958 307.031 73.8604C308.057 73.7139 309.082 73.6406 310.107 73.6406C310.596 73.6406 311.157 73.665 311.792 73.7139C312.427 73.7627 313.013 73.9092 313.55 74.1533C314.136 74.3486 314.6 74.666 314.941 75.1055C315.332 75.4961 315.527 76.0332 315.527 76.7168ZM292.529 76.1309C291.26 69.1973 289.868 62.3369 288.354 55.5498C286.89 48.7139 285.156 41.9023 283.154 35.1152C282.275 42.4883 281.323 49.8125 280.298 57.0879C279.272 64.3633 278.174 71.6387 277.002 78.9141C279.639 78.5234 282.227 78.1084 284.766 77.6689C287.354 77.1807 289.941 76.668 292.529 76.1309ZM325.488 55.4033C325.488 56.2334 325.293 56.8438 324.902 57.2344C324.561 57.5762 323.901 57.7471 322.925 57.7471C322.485 57.7471 321.802 57.6982 320.874 57.6006C319.946 57.4541 318.994 57.2588 318.018 57.0146C317.09 56.7705 316.26 56.4287 315.527 55.9893C314.844 55.5498 314.502 55.0127 314.502 54.3779C314.502 54.1826 314.575 53.6455 314.722 52.7666C314.868 51.8389 315.039 50.8623 315.234 49.8369C315.479 48.8115 315.674 47.8838 315.82 47.0537C316.016 46.2236 316.162 45.7598 316.26 45.6621V45.7354C316.504 45.3447 316.797 45.1006 317.139 45.0029C317.48 44.9053 317.822 44.8564 318.164 44.8564C318.604 44.8564 319.165 44.9297 319.849 45.0762C320.581 45.1738 321.289 45.3447 321.973 45.5889C322.705 45.7842 323.364 46.0527 323.95 46.3945C324.536 46.7363 324.902 47.1025 325.049 47.4932C325.195 47.8838 325.269 48.4209 325.269 49.1045C325.317 49.7393 325.317 50.3252 325.269 50.8623C325.269 51.0576 325.244 51.3018 325.195 51.5947C325.195 51.8389 325.195 52.0342 325.195 52.1807C325.195 52.4248 325.195 52.6689 325.195 52.9131C325.244 53.1572 325.293 53.4014 325.342 53.6455C325.391 53.8896 325.415 54.1582 325.415 54.4512C325.464 54.7441 325.488 55.0615 325.488 55.4033ZM328.198 113.777C328.198 114.9 327.93 115.706 327.393 116.194C326.904 116.634 326.099 116.854 324.976 116.854C324.39 116.854 323.73 116.78 322.998 116.634C322.314 116.487 321.631 116.292 320.947 116.048C320.264 115.755 319.629 115.413 319.043 115.022C318.457 114.632 318.018 114.192 317.725 113.704C317.529 113.411 317.358 112.508 317.212 110.994C317.065 109.48 316.943 107.601 316.846 105.354C316.797 103.108 316.724 100.594 316.626 97.8105C316.577 95.0273 316.528 92.2197 316.479 89.3877C316.479 86.5557 316.479 83.7969 316.479 81.1113C316.479 78.4258 316.479 76.082 316.479 74.0801V68.4404C316.479 67.9521 316.479 67.4639 316.479 66.9756C316.528 66.4873 316.626 66.0723 316.772 65.7305C316.968 65.3398 317.236 65.0225 317.578 64.7783C317.969 64.5342 318.506 64.4121 319.189 64.4121C321.338 64.4121 322.9 65.0225 323.877 66.2432C324.902 67.415 325.537 69.002 325.781 71.0039C326.025 73.9824 326.196 76.9609 326.294 79.9395C326.44 82.8691 326.562 85.8477 326.66 88.875C326.758 91.6094 326.831 94.3193 326.88 97.0049C326.978 99.6416 327.148 102.278 327.393 104.915C327.441 105.452 327.49 105.965 327.539 106.453C327.588 106.941 327.661 107.43 327.759 107.918C327.856 108.895 327.954 109.871 328.052 110.848C328.149 111.775 328.198 112.752 328.198 113.777ZM341.602 118.172C340.869 118.172 340.063 118.074 339.185 117.879C338.354 117.684 337.549 117.366 336.768 116.927C336.035 116.487 335.4 115.95 334.863 115.315C334.375 114.632 334.131 113.826 334.131 112.898C334.131 111.531 334.18 110.188 334.277 108.87C334.424 107.503 334.57 106.16 334.717 104.842V104.915L335.156 100.008C335.303 98.25 335.425 96.3213 335.522 94.2217C335.62 92.1221 335.693 89.998 335.742 87.8496C335.84 85.6523 335.913 83.5039 335.962 81.4043C336.011 79.3047 336.035 77.376 336.035 75.6182C336.035 74.5928 336.011 73.5674 335.962 72.542C335.962 71.4678 335.962 70.3936 335.962 69.3193C335.913 68.3916 335.889 67.3662 335.889 66.2432C335.889 65.0713 335.889 63.9971 335.889 63.0205C335.889 61.9951 336.011 61.165 336.255 60.5303C336.548 59.8467 337.329 59.5049 338.599 59.5049C339.722 59.5049 340.894 59.7979 342.114 60.3838C343.384 60.9697 344.263 61.7998 344.751 62.874H344.678C344.922 63.4111 345.093 64.29 345.19 65.5107C345.337 66.6826 345.435 67.7324 345.483 68.6602C346.313 67.3906 347.241 66.0479 348.267 64.6318C349.341 63.2158 350.488 61.9219 351.709 60.75C352.93 59.5293 354.224 58.5283 355.591 57.7471C356.958 56.9658 358.423 56.5752 359.985 56.5752C362.036 56.5752 363.599 57.0879 364.673 58.1133C365.747 59.1387 366.528 60.4326 367.017 61.9951C367.505 63.5088 367.773 65.1445 367.822 66.9023C367.871 68.6113 367.896 70.1738 367.896 71.5898V72.1758C367.896 72.7617 367.871 73.3477 367.822 73.9336C367.822 74.4707 367.725 74.9834 367.529 75.4717C367.383 75.9111 367.09 76.2773 366.65 76.5703C366.26 76.8633 365.698 77.0098 364.966 77.0098C364.185 77.0098 363.354 76.9121 362.476 76.7168C361.597 76.4727 360.767 76.1309 359.985 75.6914C359.253 75.252 358.618 74.7148 358.081 74.0801C357.544 73.3965 357.251 72.6152 357.202 71.7363C357.202 71.3457 357.202 70.9551 357.202 70.5645C357.202 70.1738 357.227 69.7832 357.275 69.3926C357.275 69.1484 357.275 68.8555 357.275 68.5137C357.324 68.123 357.349 67.7568 357.349 67.415C355.786 68.9775 354.395 70.9062 353.174 73.2012C352.002 75.4961 350.928 77.9375 349.951 80.5254C349.023 83.1133 348.218 85.7256 347.534 88.3623C346.851 90.9502 346.265 93.2939 345.776 95.3936V95.6133C345.63 97.127 345.532 98.6162 345.483 100.081C345.435 101.546 345.386 103.06 345.337 104.622C345.288 106.38 345.215 108.162 345.117 109.969C345.068 111.775 344.946 113.533 344.751 115.242C344.653 116.17 344.36 116.878 343.872 117.366C343.433 117.903 342.676 118.172 341.602 118.172ZM399.316 103.597C399.316 105.062 398.901 106.575 398.071 108.138C397.29 109.7 396.265 111.141 394.995 112.459C393.726 113.729 392.261 114.778 390.601 115.608C388.989 116.438 387.378 116.854 385.767 116.854C383.472 116.854 381.494 116.414 379.834 115.535C378.174 114.607 376.733 113.387 375.513 111.873C374.292 110.311 373.291 108.553 372.51 106.6C371.777 104.646 371.191 102.645 370.752 100.594C370.312 98.4941 369.995 96.4189 369.8 94.3682C369.653 92.2686 369.58 90.3643 369.58 88.6553C369.58 87.1904 369.653 85.457 369.8 83.4551C369.995 81.4531 370.288 79.3779 370.679 77.2295C371.118 75.0811 371.704 72.957 372.437 70.8574C373.169 68.7578 374.072 66.8779 375.146 65.2178C376.27 63.5576 377.588 62.2148 379.102 61.1895C380.664 60.1641 382.446 59.6514 384.448 59.6514C386.011 59.6514 387.402 59.9688 388.623 60.6035C389.893 61.2383 390.942 62.0928 391.772 63.167C392.651 64.1924 393.311 65.3887 393.75 66.7559C394.238 68.123 394.482 69.5391 394.482 71.0039C394.482 72.9082 394.043 74.9834 393.164 77.2295C392.285 79.4756 391.138 81.6484 389.722 83.748C388.354 85.8477 386.792 87.752 385.034 89.4609C383.325 91.1211 381.616 92.3906 379.907 93.2695C380.005 94.1484 380.2 95.4424 380.493 97.1514C380.786 98.8115 381.177 100.472 381.665 102.132C382.202 103.792 382.812 105.232 383.496 106.453C384.229 107.674 385.083 108.284 386.06 108.284C386.548 108.284 386.963 108.138 387.305 107.845C387.695 107.552 388.037 107.161 388.33 106.673C388.623 106.185 388.867 105.647 389.062 105.062C389.307 104.476 389.526 103.914 389.722 103.377L390.161 102.352C390.259 102.205 390.308 102.107 390.308 102.059C390.356 102.01 390.405 101.937 390.454 101.839C390.796 101.204 391.113 100.618 391.406 100.081C391.748 99.5439 392.212 99.0801 392.798 98.6895H392.725C392.92 98.4941 393.115 98.3965 393.311 98.3965C393.555 98.3477 393.774 98.3232 393.97 98.3232C394.507 98.3232 395.093 98.4941 395.728 98.8359C396.362 99.1777 396.948 99.6172 397.485 100.154C398.022 100.643 398.462 101.204 398.804 101.839C399.146 102.425 399.316 103.011 399.316 103.597ZM384.814 71.2969C384.814 70.8086 384.79 70.2959 384.741 69.7588C384.692 69.2217 384.57 68.7578 384.375 68.3672C383.691 69.1973 383.081 70.1982 382.544 71.3701C382.056 72.4932 381.641 73.6895 381.299 74.959C380.957 76.1797 380.664 77.4248 380.42 78.6943C380.225 79.9639 380.078 81.1357 379.98 82.21C381.25 80.6963 382.373 78.9873 383.35 77.083C384.326 75.1299 384.814 73.2012 384.814 71.2969ZM427.515 63.3135C427.515 63.8994 427.295 64.3877 426.855 64.7783C426.465 65.1689 425.977 65.5107 425.391 65.8037C424.805 66.0479 424.194 66.2188 423.56 66.3164C422.974 66.4141 422.485 66.4629 422.095 66.4629C421.509 66.4629 420.947 66.4141 420.41 66.3164C419.873 66.1699 419.336 66.0234 418.799 65.877C418.262 65.7305 417.749 65.6084 417.261 65.5107C416.772 65.3643 416.26 65.291 415.723 65.291C414.99 65.291 414.258 65.4131 413.525 65.6572C412.793 65.9014 412.134 66.2432 411.548 66.6826C410.962 67.1221 410.474 67.6592 410.083 68.2939C409.741 68.9287 409.57 69.6367 409.57 70.418C409.57 71.5898 409.814 72.7617 410.303 73.9336C410.791 75.0566 411.426 76.2041 412.207 77.376C413.037 78.5479 413.965 79.7441 414.99 80.9648C416.064 82.1367 417.188 83.333 418.359 84.5537C419.775 86.1162 421.191 87.7031 422.607 89.3145C424.072 90.9258 425.366 92.6104 426.489 94.3682C427.661 96.126 428.613 97.9814 429.346 99.9346C430.078 101.888 430.444 103.938 430.444 106.087C430.444 107.942 430.127 109.603 429.492 111.067C428.906 112.532 428.052 113.777 426.929 114.803C425.854 115.828 424.536 116.609 422.974 117.146C421.46 117.732 419.8 118.025 417.993 118.025C417.505 118.025 416.748 117.928 415.723 117.732C414.746 117.537 413.623 117.269 412.354 116.927C411.084 116.536 409.766 116.121 408.398 115.682C407.08 115.242 405.859 114.778 404.736 114.29C403.662 113.753 402.759 113.24 402.026 112.752C401.343 112.215 401.001 111.727 401.001 111.287C401.001 110.701 401.27 110.115 401.807 109.529C402.344 108.895 402.979 108.333 403.711 107.845C404.443 107.308 405.2 106.868 405.981 106.526C406.812 106.185 407.495 106.014 408.032 106.014C408.765 106.014 409.521 106.185 410.303 106.526C411.133 106.868 411.963 107.259 412.793 107.698C413.721 108.187 414.648 108.626 415.576 109.017C416.553 109.407 417.554 109.603 418.579 109.603C419.36 109.603 419.8 109.334 419.897 108.797C420.044 108.26 420.117 107.649 420.117 106.966C420.117 105.257 419.824 103.646 419.238 102.132C418.652 100.569 417.896 99.0557 416.968 97.5908C416.04 96.126 414.966 94.71 413.745 93.3428C412.524 91.9268 411.304 90.5352 410.083 89.168C408.813 87.8008 407.568 86.4336 406.348 85.0664C405.176 83.6992 404.126 82.3076 403.198 80.8916C402.271 79.4268 401.514 77.9375 400.928 76.4238C400.391 74.9102 400.122 73.2988 400.122 71.5898C400.122 69.4902 400.586 67.6104 401.514 65.9502C402.441 64.2412 403.638 62.7764 405.103 61.5557C406.616 60.335 408.301 59.4072 410.156 58.7725C412.061 58.0889 413.965 57.7471 415.869 57.7471C416.504 57.7471 417.48 57.8936 418.799 58.1865C420.117 58.4307 421.411 58.7969 422.681 59.2852C423.95 59.7734 425.073 60.3594 426.05 61.043C427.026 61.7266 427.515 62.4834 427.515 63.3135Z" fill="#324168"/>
<path d="M179.01 156L177.45 150.81H169.62L168.06 156H165.18L171.81 135.33H175.41L182.01 156H179.01ZM170.31 148.5H176.76L173.55 137.7L170.31 148.5ZM192.134 134.97C193.374 134.97 194.414 135.13 195.254 135.45C196.114 135.77 196.984 136.29 197.864 137.01L196.304 138.84C195.044 137.82 193.714 137.31 192.314 137.31C190.594 137.31 189.204 137.97 188.144 139.29C187.104 140.61 186.584 142.73 186.584 145.65C186.584 148.49 187.104 150.59 188.144 151.95C189.184 153.29 190.564 153.96 192.284 153.96C193.164 153.96 193.934 153.81 194.594 153.51C195.254 153.21 195.954 152.79 196.694 152.25L198.104 154.05C197.464 154.71 196.644 155.26 195.644 155.7C194.644 156.14 193.494 156.36 192.194 156.36C190.514 156.36 189.014 155.95 187.694 155.13C186.394 154.29 185.374 153.07 184.634 151.47C183.914 149.85 183.554 147.91 183.554 145.65C183.554 143.39 183.934 141.46 184.694 139.86C185.454 138.24 186.484 137.02 187.784 136.2C189.084 135.38 190.534 134.97 192.134 134.97ZM208.485 134.97C210.225 134.97 211.745 135.39 213.045 136.23C214.365 137.05 215.385 138.26 216.105 139.86C216.845 141.46 217.215 143.4 217.215 145.68C217.215 147.92 216.845 149.84 216.105 151.44C215.385 153.04 214.365 154.26 213.045 155.1C211.745 155.94 210.225 156.36 208.485 156.36C206.745 156.36 205.215 155.95 203.895 155.13C202.595 154.31 201.575 153.1 200.835 151.5C200.115 149.9 199.755 147.97 199.755 145.71C199.755 143.49 200.115 141.57 200.835 139.95C201.575 138.33 202.605 137.1 203.925 136.26C205.245 135.4 206.765 134.97 208.485 134.97ZM208.485 137.31C206.685 137.31 205.285 137.99 204.285 139.35C203.285 140.71 202.785 142.83 202.785 145.71C202.785 148.57 203.285 150.67 204.285 152.01C205.305 153.35 206.705 154.02 208.485 154.02C212.285 154.02 214.185 151.24 214.185 145.68C214.185 140.1 212.285 137.31 208.485 137.31ZM236.367 156H232.557L224.157 138.45C224.277 139.83 224.367 141.11 224.427 142.29C224.507 143.45 224.547 144.86 224.547 146.52V156H221.877V135.33H225.597L234.087 152.91C234.027 152.39 233.947 151.48 233.847 150.18C233.747 148.88 233.697 147.69 233.697 146.61V135.33H236.367V156ZM246.675 135.33C249.795 135.33 252.295 136.06 254.175 137.52C256.075 138.96 257.025 141.64 257.025 145.56C257.025 149.38 256.075 152.08 254.175 153.66C252.295 155.22 250.005 156 247.305 156H242.355V135.33H246.675ZM245.205 137.61V153.75H247.515C249.435 153.75 250.995 153.16 252.195 151.98C253.395 150.8 253.995 148.66 253.995 145.56C253.995 143.38 253.685 141.71 253.065 140.55C252.445 139.37 251.655 138.59 250.695 138.21C249.735 137.81 248.605 137.61 247.305 137.61H245.205ZM264.512 135.33V156H261.662V135.33H264.512ZM277.74 134.97C278.98 134.97 280.02 135.13 280.86 135.45C281.72 135.77 282.59 136.29 283.47 137.01L281.91 138.84C280.65 137.82 279.32 137.31 277.92 137.31C276.2 137.31 274.81 137.97 273.75 139.29C272.71 140.61 272.19 142.73 272.19 145.65C272.19 148.49 272.71 150.59 273.75 151.95C274.79 153.29 276.17 153.96 277.89 153.96C278.77 153.96 279.54 153.81 280.2 153.51C280.86 153.21 281.56 152.79 282.3 152.25L283.71 154.05C283.07 154.71 282.25 155.26 281.25 155.7C280.25 156.14 279.1 156.36 277.8 156.36C276.12 156.36 274.62 155.95 273.3 155.13C272 154.29 270.98 153.07 270.24 151.47C269.52 149.85 269.16 147.91 269.16 145.65C269.16 143.39 269.54 141.46 270.3 139.86C271.06 138.24 272.09 137.02 273.39 136.2C274.69 135.38 276.14 134.97 277.74 134.97ZM293.941 134.97C295.181 134.97 296.221 135.13 297.061 135.45C297.921 135.77 298.791 136.29 299.671 137.01L298.111 138.84C296.851 137.82 295.521 137.31 294.121 137.31C292.401 137.31 291.011 137.97 289.951 139.29C288.911 140.61 288.391 142.73 288.391 145.65C288.391 148.49 288.911 150.59 289.951 151.95C290.991 153.29 292.371 153.96 294.091 153.96C294.971 153.96 295.741 153.81 296.401 153.51C297.061 153.21 297.761 152.79 298.501 152.25L299.911 154.05C299.271 154.71 298.451 155.26 297.451 155.7C296.451 156.14 295.301 156.36 294.001 156.36C292.321 156.36 290.821 155.95 289.501 155.13C288.201 154.29 287.181 153.07 286.441 151.47C285.721 149.85 285.361 147.91 285.361 145.65C285.361 143.39 285.741 141.46 286.501 139.86C287.261 138.24 288.291 137.02 289.591 136.2C290.891 135.38 292.341 134.97 293.941 134.97ZM306.348 135.33V156H303.498V135.33H306.348ZM319.726 134.97C321.466 134.97 322.986 135.39 324.286 136.23C325.606 137.05 326.626 138.26 327.346 139.86C328.086 141.46 328.456 143.4 328.456 145.68C328.456 147.92 328.086 149.84 327.346 151.44C326.626 153.04 325.606 154.26 324.286 155.1C322.986 155.94 321.466 156.36 319.726 156.36C317.986 156.36 316.456 155.95 315.136 155.13C313.836 154.31 312.816 153.1 312.076 151.5C311.356 149.9 310.996 147.97 310.996 145.71C310.996 143.49 311.356 141.57 312.076 139.95C312.816 138.33 313.846 137.1 315.166 136.26C316.486 135.4 318.006 134.97 319.726 134.97ZM319.726 137.31C317.926 137.31 316.526 137.99 315.526 139.35C314.526 140.71 314.026 142.83 314.026 145.71C314.026 148.57 314.526 150.67 315.526 152.01C316.546 153.35 317.946 154.02 319.726 154.02C323.526 154.02 325.426 151.24 325.426 145.68C325.426 140.1 323.526 137.31 319.726 137.31ZM347.607 156H343.797L335.397 138.45C335.517 139.83 335.607 141.11 335.667 142.29C335.747 143.45 335.787 144.86 335.787 146.52V156H333.117V135.33H336.837L345.327 152.91C345.267 152.39 345.187 151.48 345.087 150.18C344.987 148.88 344.937 147.69 344.937 146.61V135.33H347.607V156ZM364.606 156L363.046 150.81H355.216L353.656 156H350.776L357.406 135.33H361.006L367.606 156H364.606ZM355.906 148.5H362.356L359.146 137.7L355.906 148.5ZM375.113 135.33C378.233 135.33 380.733 136.06 382.613 137.52C384.513 138.96 385.463 141.64 385.463 145.56C385.463 149.38 384.513 152.08 382.613 153.66C380.733 155.22 378.443 156 375.743 156H370.793V135.33H375.113ZM373.643 137.61V153.75H375.953C377.873 153.75 379.433 153.16 380.633 151.98C381.833 150.8 382.433 148.66 382.433 145.56C382.433 143.38 382.123 141.71 381.503 140.55C380.883 139.37 380.093 138.59 379.133 138.21C378.173 137.81 377.043 137.61 375.743 137.61H373.643ZM397.48 134.97C399.22 134.97 400.74 135.39 402.04 136.23C403.36 137.05 404.38 138.26 405.1 139.86C405.84 141.46 406.21 143.4 406.21 145.68C406.21 147.92 405.84 149.84 405.1 151.44C404.38 153.04 403.36 154.26 402.04 155.1C400.74 155.94 399.22 156.36 397.48 156.36C395.74 156.36 394.21 155.95 392.89 155.13C391.59 154.31 390.57 153.1 389.83 151.5C389.11 149.9 388.75 147.97 388.75 145.71C388.75 143.49 389.11 141.57 389.83 139.95C390.57 138.33 391.6 137.1 392.92 136.26C394.24 135.4 395.76 134.97 397.48 134.97ZM397.48 137.31C395.68 137.31 394.28 137.99 393.28 139.35C392.28 140.71 391.78 142.83 391.78 145.71C391.78 148.57 392.28 150.67 393.28 152.01C394.3 153.35 395.7 154.02 397.48 154.02C401.28 154.02 403.18 151.24 403.18 145.68C403.18 140.1 401.28 137.31 397.48 137.31ZM415.971 134.97C417.351 134.97 418.531 135.17 419.511 135.57C420.491 135.95 421.441 136.55 422.361 137.37L420.801 139.11C420.021 138.49 419.251 138.04 418.491 137.76C417.751 137.46 416.951 137.31 416.091 137.31C415.011 137.31 414.121 137.56 413.421 138.06C412.721 138.56 412.371 139.29 412.371 140.25C412.371 140.85 412.491 141.36 412.731 141.78C412.971 142.18 413.411 142.55 414.051 142.89C414.711 143.23 415.661 143.59 416.901 143.97C418.201 144.37 419.281 144.8 420.141 145.26C421.001 145.72 421.691 146.36 422.211 147.18C422.751 147.98 423.021 149 423.021 150.24C423.021 151.44 422.721 152.5 422.121 153.42C421.541 154.34 420.691 155.06 419.571 155.58C418.471 156.1 417.161 156.36 415.641 156.36C412.781 156.36 410.441 155.47 408.621 153.69L410.181 151.95C411.021 152.63 411.871 153.15 412.731 153.51C413.591 153.85 414.551 154.02 415.611 154.02C416.891 154.02 417.951 153.71 418.791 153.09C419.631 152.45 420.051 151.53 420.051 150.33C420.051 149.65 419.921 149.09 419.661 148.65C419.401 148.19 418.951 147.78 418.311 147.42C417.691 147.06 416.781 146.7 415.581 146.34C413.461 145.7 411.911 144.93 410.931 144.03C409.951 143.13 409.461 141.91 409.461 140.37C409.461 139.33 409.731 138.4 410.271 137.58C410.831 136.76 411.601 136.12 412.581 135.66C413.581 135.2 414.711 134.97 415.971 134.97Z" fill="#2E3060"/>
<path d="M72 37C72 16.5655 88.5655 0 109 0H223C223 20.4345 206.435 37 186 37H72Z" fill="#EFB316"/>
<path d="M126.231 7.67188L122.54 29H119.815L123.521 7.67188H126.231ZM132.882 7.67188L132.472 9.98633H116.476L116.886 7.67188H132.882ZM138.552 26.29L139.87 18.1016C139.939 17.4961 139.88 16.9639 139.695 16.5049C139.519 16.0459 139.221 15.6895 138.801 15.4355C138.391 15.1816 137.873 15.0449 137.248 15.0254C136.701 15.0156 136.164 15.1035 135.637 15.2891C135.119 15.4746 134.67 15.7529 134.289 16.124C133.908 16.4951 133.659 16.9639 133.542 17.5303L130.905 17.5449C130.974 16.7539 131.223 16.0654 131.653 15.4795C132.082 14.8838 132.619 14.3906 133.264 14C133.908 13.5996 134.602 13.3066 135.344 13.1211C136.086 12.9258 136.809 12.833 137.512 12.8428C138.576 12.8623 139.499 13.0918 140.28 13.5312C141.071 13.9609 141.667 14.5664 142.068 15.3477C142.468 16.1289 142.614 17.0664 142.507 18.1602L141.291 25.543C141.203 26.0801 141.15 26.6221 141.13 27.1689C141.12 27.7061 141.184 28.2334 141.321 28.751L141.291 29L138.611 29.0146C138.503 28.5654 138.449 28.1113 138.449 27.6523C138.459 27.1934 138.493 26.7393 138.552 26.29ZM140.178 19.3906L139.87 21.2949L137.365 21.2803C136.838 21.2803 136.281 21.3193 135.696 21.3975C135.11 21.4756 134.553 21.6221 134.026 21.8369C133.498 22.0518 133.054 22.3643 132.693 22.7744C132.331 23.1748 132.112 23.6973 132.033 24.3418C131.975 24.8691 132.038 25.3281 132.224 25.7188C132.419 26.0996 132.712 26.3975 133.103 26.6123C133.493 26.8271 133.947 26.9395 134.465 26.9492C135.139 26.959 135.803 26.8271 136.457 26.5537C137.112 26.2803 137.683 25.8896 138.171 25.3818C138.659 24.874 138.996 24.2881 139.182 23.624L140.149 24.9277C139.963 25.5723 139.66 26.168 139.24 26.7148C138.821 27.252 138.322 27.7158 137.746 28.1064C137.18 28.4971 136.57 28.7998 135.915 29.0146C135.261 29.2295 134.607 29.332 133.952 29.3223C133.064 29.3027 132.258 29.1025 131.535 28.7217C130.822 28.3408 130.256 27.8086 129.836 27.125C129.426 26.4316 129.25 25.626 129.309 24.708C129.367 23.7021 129.631 22.8574 130.1 22.1738C130.569 21.4902 131.169 20.9434 131.902 20.5332C132.644 20.123 133.454 19.8301 134.333 19.6543C135.212 19.4688 136.081 19.376 136.941 19.376L140.178 19.3906ZM150.404 6.5L146.493 29H143.841L147.738 6.5H150.404ZM156.294 6.5L152.382 29H149.731L153.628 6.5H156.294ZM162.11 29.293C161.026 29.2734 160.084 29.0586 159.283 28.6484C158.492 28.2285 157.843 27.667 157.335 26.9639C156.837 26.251 156.48 25.4404 156.265 24.5322C156.051 23.624 155.987 22.6719 156.075 21.6758L156.134 21.0459C156.231 20.0303 156.48 19.0342 156.881 18.0576C157.281 17.0713 157.813 16.1826 158.477 15.3916C159.151 14.6006 159.942 13.9756 160.85 13.5166C161.768 13.0479 162.784 12.8281 163.897 12.8574C165.001 12.877 165.919 13.1113 166.651 13.5605C167.384 14.0098 167.955 14.6055 168.365 15.3477C168.785 16.0801 169.058 16.9053 169.185 17.8232C169.312 18.7314 169.322 19.6641 169.215 20.6211L169.054 21.8369H157.554L157.906 19.625L166.68 19.6396L166.724 19.4053C166.822 18.7021 166.783 18.0234 166.607 17.3691C166.431 16.7148 166.109 16.1777 165.64 15.7578C165.181 15.3281 164.561 15.1035 163.78 15.084C162.97 15.0547 162.266 15.2207 161.671 15.582C161.075 15.9336 160.577 16.4121 160.177 17.0176C159.776 17.6133 159.459 18.2676 159.224 18.9805C159 19.6836 158.844 20.3721 158.756 21.0459L158.697 21.6611C158.638 22.2861 158.658 22.916 158.756 23.5508C158.853 24.1855 159.039 24.7666 159.312 25.2939C159.596 25.8115 159.986 26.2363 160.484 26.5684C160.982 26.8906 161.597 27.0615 162.33 27.0811C163.219 27.1006 164.014 26.9102 164.718 26.5098C165.43 26.0996 166.08 25.582 166.666 24.957L168.175 26.2461C167.716 26.9199 167.169 27.4863 166.534 27.9453C165.899 28.4043 165.206 28.7461 164.454 28.9707C163.702 29.1953 162.921 29.3027 162.11 29.293ZM174.592 15.7578L172.292 29H169.641L172.395 13.1504H174.973L174.592 15.7578ZM179.733 13.0186L179.484 15.5674C179.279 15.5283 179.069 15.4941 178.854 15.4648C178.649 15.4355 178.444 15.4209 178.239 15.4209C177.604 15.4111 177.033 15.5088 176.525 15.7139C176.027 15.9092 175.583 16.1875 175.192 16.5488C174.812 16.9102 174.484 17.335 174.211 17.8232C173.947 18.3115 173.737 18.8389 173.581 19.4053L172.746 19.8447C172.854 19.0537 173.029 18.2432 173.273 17.4131C173.527 16.583 173.874 15.8164 174.313 15.1133C174.763 14.4102 175.324 13.8437 175.998 13.4141C176.682 12.9844 177.502 12.7842 178.459 12.8135C178.674 12.8135 178.884 12.833 179.089 12.8721C179.304 12.9111 179.519 12.96 179.733 13.0186Z" fill="#2E3060"/>
</svg>
